<svg xmlns="http://www.w3.org/2000/svg" viewBox="42 53 438 438" role="img" aria-label="iamago">
  <title>iamago</title>
  <g fill="none" stroke-linecap="round">
    <path d="M69.29,361.41A211.56,211.56 0 0 1 52.68,235.26" stroke="#9e1f63" stroke-width="8.8236"/>
    <path d="M62.23,199.64A211.56,211.56 0 0 1 224.29,63.65" stroke="#1b75bb" stroke-width="8.8236"/>
    <path d="M297.77,63.65A211.56,211.56 0 0 1 444.24,166.22" stroke="#9e1f63" stroke-width="8.8236"/>
    <path d="M452.77,361.41A211.56,211.56 0 0 1 350.44,463.74" stroke="#00a69c" stroke-width="8.8236"/>
    <path d="M315.78,476.35A211.56,211.56 0 0 1 98.96,407.99" stroke="#404041" stroke-width="8.8236"/>
    <path d="M159.91,416.42A176.3,176.3 0 0 1 291.64,98.38" stroke="#f6921e" stroke-width="8.8236"/>
    <path d="M374.35,136.95A176.3,176.3 0 0 1 420.81,197.49" stroke="#2b388f" stroke-width="8.8236"/>
    <path d="M434.65,241.39A176.3,176.3 0 0 1 245.66,447.63" stroke="#ec297b" stroke-width="8.8236"/>
    <path d="M145.49,191.10A141.04,141.04 0 0 1 399.93,247.51" stroke="#00a69c" stroke-width="8.8236"/>
    <path d="M402.07,272.00A141.04,141.04 0 0 1 120.52,284.29" stroke="#26a9e0" stroke-width="8.8236"/>
    <path d="M208.14,363.61A105.78,105.78 0 0 1 251.81,166.62" stroke="#ec297b" stroke-width="8.8236"/>
  </g>
</svg>
